<?xml version="1.0" standalone="no"?>
<!DOCTYPE svg PUBLIC "-//W3C//DTD SVG 20010904//EN"
 "http://www.w3.org/TR/2001/REC-SVG-20010904/DTD/svg10.dtd">
<svg version="1.0" xmlns="http://www.w3.org/2000/svg"
 width="32.000000pt" height="32.000000pt" viewBox="0 0 32.000000 32.000000"
 preserveAspectRatio="xMidYMid meet">
<metadata>
Created by potrace 1.10, written by Peter Selinger 2001-2011
</metadata>
<g transform="translate(0.000000,32.000000) scale(0.100000,-0.100000)"
fill="lightblue" stroke="none">
<path d="M111 310 c-48 -11 -90 -58 -98 -105 l-6 -40 31 33 30 33 6 -29 c7
-28 -7 -82 -21 -82 -4 0 -17 9 -29 21 l-22 20 8 -43 c10 -50 65 -108 105 -108
27 0 34 15 10 24 -8 3 -15 12 -15 21 0 17 25 21 35 5 4 -6 14 -9 23 -8 12 2
16 -3 15 -19 -4 -34 38 -30 80 7 68 59 69 177 3 237 -20 18 -46 33 -58 33 -13
0 -32 2 -43 4 -11 3 -35 1 -54 -4z m55 -66 c4 -14 4 -45 1 -70 -2 -24 -3 -44
-2 -44 1 0 15 25 30 55 26 51 65 99 65 79 -1 -5 -7 -36 -15 -69 -8 -33 -15
-79 -15 -102 0 -24 -5 -43 -10 -43 -20 0 -22 30 -7 95 17 77 13 76 -24 -8 -15
-34 -31 -61 -36 -59 -4 1 -7 35 -6 75 2 61 0 68 -9 47 -7 -14 -25 -54 -41 -90
-16 -36 -31 -60 -33 -54 -3 6 14 50 36 99 22 48 38 90 36 92 -9 10 -26 -9 -26
-28 0 -23 -15 -25 -24 -4 -7 19 28 55 54 55 13 0 22 -9 26 -26z m134 -69 c17
-21 6 -42 -23 -42 -23 0 -24 2 -15 28 11 33 20 36 38 14z"/>
</g>
</svg>
